<svg xmlns="http://www.w3.org/2000/svg" width="780" height="158" viewBox="0 0 780 158" font-family="monospace">
  <rect width="100%" height="100%" fill="#0b0f14" rx="8"/>
  <text x="4" y="148" font-size="11" fill="#e8edf2">11 submissions in the past year</text>
  <text x="570" y="148" font-size="11" fill="#7c8a9a">Active days: <tspan fill="#e8edf2">4</tspan>&#160;&#160;Max streak: <tspan fill="#e8edf2">4</tspan></text>
  <text x="4" y="15" font-size="10" fill="#7c8a9a" font-family="monospace">Jul</text><text x="46" y="15" font-size="10" fill="#7c8a9a" font-family="monospace">Aug</text><text x="116" y="15" font-size="10" fill="#7c8a9a" font-family="monospace">Sep</text><text x="172" y="15" font-size="10" fill="#7c8a9a" font-family="monospace">Oct</text><text x="228" y="15" font-size="10" fill="#7c8a9a" font-family="monospace">Nov</text><text x="298" y="15" font-size="10" fill="#7c8a9a" font-family="monospace">Dec</text><text x="354" y="15" font-size="10" fill="#7c8a9a" font-family="monospace">Jan</text><text x="410" y="15" font-size="10" fill="#7c8a9a" font-family="monospace">Feb</text><text x="466" y="15" font-size="10" fill="#7c8a9a" font-family="monospace">Mar</text><text x="536" y="15" font-size="10" fill="#7c8a9a" font-family="monospace">Apr</text><text x="592" y="15" font-size="10" fill="#7c8a9a" font-family="monospace">May</text><text x="662" y="15" font-size="10" fill="#7c8a9a" font-family="monospace">Jun</text><text x="718" y="15" font-size="10" fill="#7c8a9a" font-family="monospace">Jul</text>
  <rect x="4" y="20" width="11" height="11" rx="2" fill="#1b2129"><title>2025-07-13: 0 submissions</title></rect><rect x="4" y="34" width="11" height="11" rx="2" fill="#1b2129"><title>2025-07-14: 0 submissions</title></rect><rect x="4" y="48" width="11" height="11" rx="2" fill="#1b2129"><title>2025-07-15: 0 submissions</title></rect><rect x="4" y="62" width="11" height="11" rx="2" fill="#1b2129"><title>2025-07-16: 0 submissions</title></rect><rect x="4" y="76" width="11" height="11" rx="2" fill="#1b2129"><title>2025-07-17: 0 submissions</title></rect><rect x="4" y="90" width="11" height="11" rx="2" fill="#1b2129"><title>2025-07-18: 0 submissions</title></rect><rect x="4" y="104" width="11" height="11" rx="2" fill="#1b2129"><title>2025-07-19: 0 submissions</title></rect><rect x="18" y="20" width="11" height="11" rx="2" fill="#1b2129"><title>2025-07-20: 0 submissions</title></rect><rect x="18" y="34" width="11" height="11" rx="2" fill="#1b2129"><title>2025-07-21: 0 submissions</title></rect><rect x="18" y="48" width="11" height="11" rx="2" fill="#1b2129"><title>2025-07-22: 0 submissions</title></rect><rect x="18" y="62" width="11" height="11" rx="2" fill="#1b2129"><title>2025-07-23: 0 submissions</title></rect><rect x="18" y="76" width="11" height="11" rx="2" fill="#1b2129"><title>2025-07-24: 0 submissions</title></rect><rect x="18" y="90" width="11" height="11" rx="2" fill="#1b2129"><title>2025-07-25: 0 submissions</title></rect><rect x="18" y="104" width="11" height="11" rx="2" fill="#1b2129"><title>2025-07-26: 0 submissions</title></rect><rect x="32" y="20" width="11" height="11" rx="2" fill="#1b2129"><title>2025-07-27: 0 submissions</title></rect><rect x="32" y="34" width="11" height="11" rx="2" fill="#1b2129"><title>2025-07-28: 0 submissions</title></rect><rect x="32" y="48" width="11" height="11" rx="2" fill="#1b2129"><title>2025-07-29: 0 submissions</title></rect><rect x="32" y="62" width="11" height="11" rx="2" fill="#1b2129"><title>2025-07-30: 0 submissions</title></rect><rect x="32" y="76" width="11" height="11" rx="2" fill="#1b2129"><title>2025-07-31: 0 submissions</title></rect><rect x="32" y="90" width="11" height="11" rx="2" fill="#1b2129"><title>2025-08-01: 0 submissions</title></rect><rect x="32" y="104" width="11" height="11" rx="2" fill="#1b2129"><title>2025-08-02: 0 submissions</title></rect><rect x="46" y="20" width="11" height="11" rx="2" fill="#1b2129"><title>2025-08-03: 0 submissions</title></rect><rect x="46" y="34" width="11" height="11" rx="2" fill="#1b2129"><title>2025-08-04: 0 submissions</title></rect><rect x="46" y="48" width="11" height="11" rx="2" fill="#1b2129"><title>2025-08-05: 0 submissions</title></rect><rect x="46" y="62" width="11" height="11" rx="2" fill="#1b2129"><title>2025-08-06: 0 submissions</title></rect><rect x="46" y="76" width="11" height="11" rx="2" fill="#1b2129"><title>2025-08-07: 0 submissions</title></rect><rect x="46" y="90" width="11" height="11" rx="2" fill="#1b2129"><title>2025-08-08: 0 submissions</title></rect><rect x="46" y="104" width="11" height="11" rx="2" fill="#1b2129"><title>2025-08-09: 0 submissions</title></rect><rect x="60" y="20" width="11" height="11" rx="2" fill="#1b2129"><title>2025-08-10: 0 submissions</title></rect><rect x="60" y="34" width="11" height="11" rx="2" fill="#1b2129"><title>2025-08-11: 0 submissions</title></rect><rect x="60" y="48" width="11" height="11" rx="2" fill="#1b2129"><title>2025-08-12: 0 submissions</title></rect><rect x="60" y="62" width="11" height="11" rx="2" fill="#1b2129"><title>2025-08-13: 0 submissions</title></rect><rect x="60" y="76" width="11" height="11" rx="2" fill="#1b2129"><title>2025-08-14: 0 submissions</title></rect><rect x="60" y="90" width="11" height="11" rx="2" fill="#1b2129"><title>2025-08-15: 0 submissions</title></rect><rect x="60" y="104" width="11" height="11" rx="2" fill="#1b2129"><title>2025-08-16: 0 submissions</title></rect><rect x="74" y="20" width="11" height="11" rx="2" fill="#1b2129"><title>2025-08-17: 0 submissions</title></rect><rect x="74" y="34" width="11" height="11" rx="2" fill="#1b2129"><title>2025-08-18: 0 submissions</title></rect><rect x="74" y="48" width="11" height="11" rx="2" fill="#1b2129"><title>2025-08-19: 0 submissions</title></rect><rect x="74" y="62" width="11" height="11" rx="2" fill="#1b2129"><title>2025-08-20: 0 submissions</title></rect><rect x="74" y="76" width="11" height="11" rx="2" fill="#1b2129"><title>2025-08-21: 0 submissions</title></rect><rect x="74" y="90" width="11" height="11" rx="2" fill="#1b2129"><title>2025-08-22: 0 submissions</title></rect><rect x="74" y="104" width="11" height="11" rx="2" fill="#1b2129"><title>2025-08-23: 0 submissions</title></rect><rect x="88" y="20" width="11" height="11" rx="2" fill="#1b2129"><title>2025-08-24: 0 submissions</title></rect><rect x="88" y="34" width="11" height="11" rx="2" fill="#1b2129"><title>2025-08-25: 0 submissions</title></rect><rect x="88" y="48" width="11" height="11" rx="2" fill="#1b2129"><title>2025-08-26: 0 submissions</title></rect><rect x="88" y="62" width="11" height="11" rx="2" fill="#1b2129"><title>2025-08-27: 0 submissions</title></rect><rect x="88" y="76" width="11" height="11" rx="2" fill="#1b2129"><title>2025-08-28: 0 submissions</title></rect><rect x="88" y="90" width="11" height="11" rx="2" fill="#1b2129"><title>2025-08-29: 0 submissions</title></rect><rect x="88" y="104" width="11" height="11" rx="2" fill="#1b2129"><title>2025-08-30: 0 submissions</title></rect><rect x="102" y="20" width="11" height="11" rx="2" fill="#1b2129"><title>2025-08-31: 0 submissions</title></rect><rect x="102" y="34" width="11" height="11" rx="2" fill="#1b2129"><title>2025-09-01: 0 submissions</title></rect><rect x="102" y="48" width="11" height="11" rx="2" fill="#1b2129"><title>2025-09-02: 0 submissions</title></rect><rect x="102" y="62" width="11" height="11" rx="2" fill="#1b2129"><title>2025-09-03: 0 submissions</title></rect><rect x="102" y="76" width="11" height="11" rx="2" fill="#1b2129"><title>2025-09-04: 0 submissions</title></rect><rect x="102" y="90" width="11" height="11" rx="2" fill="#1b2129"><title>2025-09-05: 0 submissions</title></rect><rect x="102" y="104" width="11" height="11" rx="2" fill="#1b2129"><title>2025-09-06: 0 submissions</title></rect><rect x="116" y="20" width="11" height="11" rx="2" fill="#1b2129"><title>2025-09-07: 0 submissions</title></rect><rect x="116" y="34" width="11" height="11" rx="2" fill="#1b2129"><title>2025-09-08: 0 submissions</title></rect><rect x="116" y="48" width="11" height="11" rx="2" fill="#1b2129"><title>2025-09-09: 0 submissions</title></rect><rect x="116" y="62" width="11" height="11" rx="2" fill="#1b2129"><title>2025-09-10: 0 submissions</title></rect><rect x="116" y="76" width="11" height="11" rx="2" fill="#1b2129"><title>2025-09-11: 0 submissions</title></rect><rect x="116" y="90" width="11" height="11" rx="2" fill="#1b2129"><title>2025-09-12: 0 submissions</title></rect><rect x="116" y="104" width="11" height="11" rx="2" fill="#1b2129"><title>2025-09-13: 0 submissions</title></rect><rect x="130" y="20" width="11" height="11" rx="2" fill="#1b2129"><title>2025-09-14: 0 submissions</title></rect><rect x="130" y="34" width="11" height="11" rx="2" fill="#1b2129"><title>2025-09-15: 0 submissions</title></rect><rect x="130" y="48" width="11" height="11" rx="2" fill="#1b2129"><title>2025-09-16: 0 submissions</title></rect><rect x="130" y="62" width="11" height="11" rx="2" fill="#1b2129"><title>2025-09-17: 0 submissions</title></rect><rect x="130" y="76" width="11" height="11" rx="2" fill="#1b2129"><title>2025-09-18: 0 submissions</title></rect><rect x="130" y="90" width="11" height="11" rx="2" fill="#1b2129"><title>2025-09-19: 0 submissions</title></rect><rect x="130" y="104" width="11" height="11" rx="2" fill="#1b2129"><title>2025-09-20: 0 submissions</title></rect><rect x="144" y="20" width="11" height="11" rx="2" fill="#1b2129"><title>2025-09-21: 0 submissions</title></rect><rect x="144" y="34" width="11" height="11" rx="2" fill="#1b2129"><title>2025-09-22: 0 submissions</title></rect><rect x="144" y="48" width="11" height="11" rx="2" fill="#1b2129"><title>2025-09-23: 0 submissions</title></rect><rect x="144" y="62" width="11" height="11" rx="2" fill="#1b2129"><title>2025-09-24: 0 submissions</title></rect><rect x="144" y="76" width="11" height="11" rx="2" fill="#1b2129"><title>2025-09-25: 0 submissions</title></rect><rect x="144" y="90" width="11" height="11" rx="2" fill="#1b2129"><title>2025-09-26: 0 submissions</title></rect><rect x="144" y="104" width="11" height="11" rx="2" fill="#1b2129"><title>2025-09-27: 0 submissions</title></rect><rect x="158" y="20" width="11" height="11" rx="2" fill="#1b2129"><title>2025-09-28: 0 submissions</title></rect><rect x="158" y="34" width="11" height="11" rx="2" fill="#1b2129"><title>2025-09-29: 0 submissions</title></rect><rect x="158" y="48" width="11" height="11" rx="2" fill="#1b2129"><title>2025-09-30: 0 submissions</title></rect><rect x="158" y="62" width="11" height="11" rx="2" fill="#1b2129"><title>2025-10-01: 0 submissions</title></rect><rect x="158" y="76" width="11" height="11" rx="2" fill="#1b2129"><title>2025-10-02: 0 submissions</title></rect><rect x="158" y="90" width="11" height="11" rx="2" fill="#1b2129"><title>2025-10-03: 0 submissions</title></rect><rect x="158" y="104" width="11" height="11" rx="2" fill="#1b2129"><title>2025-10-04: 0 submissions</title></rect><rect x="172" y="20" width="11" height="11" rx="2" fill="#1b2129"><title>2025-10-05: 0 submissions</title></rect><rect x="172" y="34" width="11" height="11" rx="2" fill="#1b2129"><title>2025-10-06: 0 submissions</title></rect><rect x="172" y="48" width="11" height="11" rx="2" fill="#1b2129"><title>2025-10-07: 0 submissions</title></rect><rect x="172" y="62" width="11" height="11" rx="2" fill="#1b2129"><title>2025-10-08: 0 submissions</title></rect><rect x="172" y="76" width="11" height="11" rx="2" fill="#1b2129"><title>2025-10-09: 0 submissions</title></rect><rect x="172" y="90" width="11" height="11" rx="2" fill="#1b2129"><title>2025-10-10: 0 submissions</title></rect><rect x="172" y="104" width="11" height="11" rx="2" fill="#1b2129"><title>2025-10-11: 0 submissions</title></rect><rect x="186" y="20" width="11" height="11" rx="2" fill="#1b2129"><title>2025-10-12: 0 submissions</title></rect><rect x="186" y="34" width="11" height="11" rx="2" fill="#1b2129"><title>2025-10-13: 0 submissions</title></rect><rect x="186" y="48" width="11" height="11" rx="2" fill="#1b2129"><title>2025-10-14: 0 submissions</title></rect><rect x="186" y="62" width="11" height="11" rx="2" fill="#1b2129"><title>2025-10-15: 0 submissions</title></rect><rect x="186" y="76" width="11" height="11" rx="2" fill="#1b2129"><title>2025-10-16: 0 submissions</title></rect><rect x="186" y="90" width="11" height="11" rx="2" fill="#1b2129"><title>2025-10-17: 0 submissions</title></rect><rect x="186" y="104" width="11" height="11" rx="2" fill="#1b2129"><title>2025-10-18: 0 submissions</title></rect><rect x="200" y="20" width="11" height="11" rx="2" fill="#1b2129"><title>2025-10-19: 0 submissions</title></rect><rect x="200" y="34" width="11" height="11" rx="2" fill="#1b2129"><title>2025-10-20: 0 submissions</title></rect><rect x="200" y="48" width="11" height="11" rx="2" fill="#1b2129"><title>2025-10-21: 0 submissions</title></rect><rect x="200" y="62" width="11" height="11" rx="2" fill="#1b2129"><title>2025-10-22: 0 submissions</title></rect><rect x="200" y="76" width="11" height="11" rx="2" fill="#1b2129"><title>2025-10-23: 0 submissions</title></rect><rect x="200" y="90" width="11" height="11" rx="2" fill="#1b2129"><title>2025-10-24: 0 submissions</title></rect><rect x="200" y="104" width="11" height="11" rx="2" fill="#1b2129"><title>2025-10-25: 0 submissions</title></rect><rect x="214" y="20" width="11" height="11" rx="2" fill="#1b2129"><title>2025-10-26: 0 submissions</title></rect><rect x="214" y="34" width="11" height="11" rx="2" fill="#1b2129"><title>2025-10-27: 0 submissions</title></rect><rect x="214" y="48" width="11" height="11" rx="2" fill="#1b2129"><title>2025-10-28: 0 submissions</title></rect><rect x="214" y="62" width="11" height="11" rx="2" fill="#1b2129"><title>2025-10-29: 0 submissions</title></rect><rect x="214" y="76" width="11" height="11" rx="2" fill="#1b2129"><title>2025-10-30: 0 submissions</title></rect><rect x="214" y="90" width="11" height="11" rx="2" fill="#1b2129"><title>2025-10-31: 0 submissions</title></rect><rect x="214" y="104" width="11" height="11" rx="2" fill="#1b2129"><title>2025-11-01: 0 submissions</title></rect><rect x="228" y="20" width="11" height="11" rx="2" fill="#1b2129"><title>2025-11-02: 0 submissions</title></rect><rect x="228" y="34" width="11" height="11" rx="2" fill="#1b2129"><title>2025-11-03: 0 submissions</title></rect><rect x="228" y="48" width="11" height="11" rx="2" fill="#1b2129"><title>2025-11-04: 0 submissions</title></rect><rect x="228" y="62" width="11" height="11" rx="2" fill="#1b2129"><title>2025-11-05: 0 submissions</title></rect><rect x="228" y="76" width="11" height="11" rx="2" fill="#1b2129"><title>2025-11-06: 0 submissions</title></rect><rect x="228" y="90" width="11" height="11" rx="2" fill="#1b2129"><title>2025-11-07: 0 submissions</title></rect><rect x="228" y="104" width="11" height="11" rx="2" fill="#1b2129"><title>2025-11-08: 0 submissions</title></rect><rect x="242" y="20" width="11" height="11" rx="2" fill="#1b2129"><title>2025-11-09: 0 submissions</title></rect><rect x="242" y="34" width="11" height="11" rx="2" fill="#1b2129"><title>2025-11-10: 0 submissions</title></rect><rect x="242" y="48" width="11" height="11" rx="2" fill="#1b2129"><title>2025-11-11: 0 submissions</title></rect><rect x="242" y="62" width="11" height="11" rx="2" fill="#1b2129"><title>2025-11-12: 0 submissions</title></rect><rect x="242" y="76" width="11" height="11" rx="2" fill="#1b2129"><title>2025-11-13: 0 submissions</title></rect><rect x="242" y="90" width="11" height="11" rx="2" fill="#1b2129"><title>2025-11-14: 0 submissions</title></rect><rect x="242" y="104" width="11" height="11" rx="2" fill="#1b2129"><title>2025-11-15: 0 submissions</title></rect><rect x="256" y="20" width="11" height="11" rx="2" fill="#1b2129"><title>2025-11-16: 0 submissions</title></rect><rect x="256" y="34" width="11" height="11" rx="2" fill="#1b2129"><title>2025-11-17: 0 submissions</title></rect><rect x="256" y="48" width="11" height="11" rx="2" fill="#1b2129"><title>2025-11-18: 0 submissions</title></rect><rect x="256" y="62" width="11" height="11" rx="2" fill="#1b2129"><title>2025-11-19: 0 submissions</title></rect><rect x="256" y="76" width="11" height="11" rx="2" fill="#1b2129"><title>2025-11-20: 0 submissions</title></rect><rect x="256" y="90" width="11" height="11" rx="2" fill="#1b2129"><title>2025-11-21: 0 submissions</title></rect><rect x="256" y="104" width="11" height="11" rx="2" fill="#1b2129"><title>2025-11-22: 0 submissions</title></rect><rect x="270" y="20" width="11" height="11" rx="2" fill="#1b2129"><title>2025-11-23: 0 submissions</title></rect><rect x="270" y="34" width="11" height="11" rx="2" fill="#1b2129"><title>2025-11-24: 0 submissions</title></rect><rect x="270" y="48" width="11" height="11" rx="2" fill="#1b2129"><title>2025-11-25: 0 submissions</title></rect><rect x="270" y="62" width="11" height="11" rx="2" fill="#1b2129"><title>2025-11-26: 0 submissions</title></rect><rect x="270" y="76" width="11" height="11" rx="2" fill="#1b2129"><title>2025-11-27: 0 submissions</title></rect><rect x="270" y="90" width="11" height="11" rx="2" fill="#1b2129"><title>2025-11-28: 0 submissions</title></rect><rect x="270" y="104" width="11" height="11" rx="2" fill="#1b2129"><title>2025-11-29: 0 submissions</title></rect><rect x="284" y="20" width="11" height="11" rx="2" fill="#1b2129"><title>2025-11-30: 0 submissions</title></rect><rect x="284" y="34" width="11" height="11" rx="2" fill="#1b2129"><title>2025-12-01: 0 submissions</title></rect><rect x="284" y="48" width="11" height="11" rx="2" fill="#1b2129"><title>2025-12-02: 0 submissions</title></rect><rect x="284" y="62" width="11" height="11" rx="2" fill="#1b2129"><title>2025-12-03: 0 submissions</title></rect><rect x="284" y="76" width="11" height="11" rx="2" fill="#1b2129"><title>2025-12-04: 0 submissions</title></rect><rect x="284" y="90" width="11" height="11" rx="2" fill="#1b2129"><title>2025-12-05: 0 submissions</title></rect><rect x="284" y="104" width="11" height="11" rx="2" fill="#1b2129"><title>2025-12-06: 0 submissions</title></rect><rect x="298" y="20" width="11" height="11" rx="2" fill="#1b2129"><title>2025-12-07: 0 submissions</title></rect><rect x="298" y="34" width="11" height="11" rx="2" fill="#1b2129"><title>2025-12-08: 0 submissions</title></rect><rect x="298" y="48" width="11" height="11" rx="2" fill="#1b2129"><title>2025-12-09: 0 submissions</title></rect><rect x="298" y="62" width="11" height="11" rx="2" fill="#1b2129"><title>2025-12-10: 0 submissions</title></rect><rect x="298" y="76" width="11" height="11" rx="2" fill="#1b2129"><title>2025-12-11: 0 submissions</title></rect><rect x="298" y="90" width="11" height="11" rx="2" fill="#1b2129"><title>2025-12-12: 0 submissions</title></rect><rect x="298" y="104" width="11" height="11" rx="2" fill="#1b2129"><title>2025-12-13: 0 submissions</title></rect><rect x="312" y="20" width="11" height="11" rx="2" fill="#1b2129"><title>2025-12-14: 0 submissions</title></rect><rect x="312" y="34" width="11" height="11" rx="2" fill="#1b2129"><title>2025-12-15: 0 submissions</title></rect><rect x="312" y="48" width="11" height="11" rx="2" fill="#1b2129"><title>2025-12-16: 0 submissions</title></rect><rect x="312" y="62" width="11" height="11" rx="2" fill="#1b2129"><title>2025-12-17: 0 submissions</title></rect><rect x="312" y="76" width="11" height="11" rx="2" fill="#1b2129"><title>2025-12-18: 0 submissions</title></rect><rect x="312" y="90" width="11" height="11" rx="2" fill="#1b2129"><title>2025-12-19: 0 submissions</title></rect><rect x="312" y="104" width="11" height="11" rx="2" fill="#1b2129"><title>2025-12-20: 0 submissions</title></rect><rect x="326" y="20" width="11" height="11" rx="2" fill="#1b2129"><title>2025-12-21: 0 submissions</title></rect><rect x="326" y="34" width="11" height="11" rx="2" fill="#1b2129"><title>2025-12-22: 0 submissions</title></rect><rect x="326" y="48" width="11" height="11" rx="2" fill="#1b2129"><title>2025-12-23: 0 submissions</title></rect><rect x="326" y="62" width="11" height="11" rx="2" fill="#1b2129"><title>2025-12-24: 0 submissions</title></rect><rect x="326" y="76" width="11" height="11" rx="2" fill="#1b2129"><title>2025-12-25: 0 submissions</title></rect><rect x="326" y="90" width="11" height="11" rx="2" fill="#1b2129"><title>2025-12-26: 0 submissions</title></rect><rect x="326" y="104" width="11" height="11" rx="2" fill="#1b2129"><title>2025-12-27: 0 submissions</title></rect><rect x="340" y="20" width="11" height="11" rx="2" fill="#1b2129"><title>2025-12-28: 0 submissions</title></rect><rect x="340" y="34" width="11" height="11" rx="2" fill="#1b2129"><title>2025-12-29: 0 submissions</title></rect><rect x="340" y="48" width="11" height="11" rx="2" fill="#1b2129"><title>2025-12-30: 0 submissions</title></rect><rect x="340" y="62" width="11" height="11" rx="2" fill="#1b2129"><title>2025-12-31: 0 submissions</title></rect><rect x="340" y="76" width="11" height="11" rx="2" fill="#1b2129"><title>2026-01-01: 0 submissions</title></rect><rect x="340" y="90" width="11" height="11" rx="2" fill="#1b2129"><title>2026-01-02: 0 submissions</title></rect><rect x="340" y="104" width="11" height="11" rx="2" fill="#1b2129"><title>2026-01-03: 0 submissions</title></rect><rect x="354" y="20" width="11" height="11" rx="2" fill="#1b2129"><title>2026-01-04: 0 submissions</title></rect><rect x="354" y="34" width="11" height="11" rx="2" fill="#1b2129"><title>2026-01-05: 0 submissions</title></rect><rect x="354" y="48" width="11" height="11" rx="2" fill="#1b2129"><title>2026-01-06: 0 submissions</title></rect><rect x="354" y="62" width="11" height="11" rx="2" fill="#1b2129"><title>2026-01-07: 0 submissions</title></rect><rect x="354" y="76" width="11" height="11" rx="2" fill="#1b2129"><title>2026-01-08: 0 submissions</title></rect><rect x="354" y="90" width="11" height="11" rx="2" fill="#1b2129"><title>2026-01-09: 0 submissions</title></rect><rect x="354" y="104" width="11" height="11" rx="2" fill="#1b2129"><title>2026-01-10: 0 submissions</title></rect><rect x="368" y="20" width="11" height="11" rx="2" fill="#1b2129"><title>2026-01-11: 0 submissions</title></rect><rect x="368" y="34" width="11" height="11" rx="2" fill="#1b2129"><title>2026-01-12: 0 submissions</title></rect><rect x="368" y="48" width="11" height="11" rx="2" fill="#1b2129"><title>2026-01-13: 0 submissions</title></rect><rect x="368" y="62" width="11" height="11" rx="2" fill="#1b2129"><title>2026-01-14: 0 submissions</title></rect><rect x="368" y="76" width="11" height="11" rx="2" fill="#1b2129"><title>2026-01-15: 0 submissions</title></rect><rect x="368" y="90" width="11" height="11" rx="2" fill="#1b2129"><title>2026-01-16: 0 submissions</title></rect><rect x="368" y="104" width="11" height="11" rx="2" fill="#1b2129"><title>2026-01-17: 0 submissions</title></rect><rect x="382" y="20" width="11" height="11" rx="2" fill="#1b2129"><title>2026-01-18: 0 submissions</title></rect><rect x="382" y="34" width="11" height="11" rx="2" fill="#1b2129"><title>2026-01-19: 0 submissions</title></rect><rect x="382" y="48" width="11" height="11" rx="2" fill="#1b2129"><title>2026-01-20: 0 submissions</title></rect><rect x="382" y="62" width="11" height="11" rx="2" fill="#1b2129"><title>2026-01-21: 0 submissions</title></rect><rect x="382" y="76" width="11" height="11" rx="2" fill="#1b2129"><title>2026-01-22: 0 submissions</title></rect><rect x="382" y="90" width="11" height="11" rx="2" fill="#1b2129"><title>2026-01-23: 0 submissions</title></rect><rect x="382" y="104" width="11" height="11" rx="2" fill="#1b2129"><title>2026-01-24: 0 submissions</title></rect><rect x="396" y="20" width="11" height="11" rx="2" fill="#1b2129"><title>2026-01-25: 0 submissions</title></rect><rect x="396" y="34" width="11" height="11" rx="2" fill="#1b2129"><title>2026-01-26: 0 submissions</title></rect><rect x="396" y="48" width="11" height="11" rx="2" fill="#1b2129"><title>2026-01-27: 0 submissions</title></rect><rect x="396" y="62" width="11" height="11" rx="2" fill="#1b2129"><title>2026-01-28: 0 submissions</title></rect><rect x="396" y="76" width="11" height="11" rx="2" fill="#1b2129"><title>2026-01-29: 0 submissions</title></rect><rect x="396" y="90" width="11" height="11" rx="2" fill="#1b2129"><title>2026-01-30: 0 submissions</title></rect><rect x="396" y="104" width="11" height="11" rx="2" fill="#1b2129"><title>2026-01-31: 0 submissions</title></rect><rect x="410" y="20" width="11" height="11" rx="2" fill="#1b2129"><title>2026-02-01: 0 submissions</title></rect><rect x="410" y="34" width="11" height="11" rx="2" fill="#1b2129"><title>2026-02-02: 0 submissions</title></rect><rect x="410" y="48" width="11" height="11" rx="2" fill="#1b2129"><title>2026-02-03: 0 submissions</title></rect><rect x="410" y="62" width="11" height="11" rx="2" fill="#1b2129"><title>2026-02-04: 0 submissions</title></rect><rect x="410" y="76" width="11" height="11" rx="2" fill="#1b2129"><title>2026-02-05: 0 submissions</title></rect><rect x="410" y="90" width="11" height="11" rx="2" fill="#1b2129"><title>2026-02-06: 0 submissions</title></rect><rect x="410" y="104" width="11" height="11" rx="2" fill="#1b2129"><title>2026-02-07: 0 submissions</title></rect><rect x="424" y="20" width="11" height="11" rx="2" fill="#1b2129"><title>2026-02-08: 0 submissions</title></rect><rect x="424" y="34" width="11" height="11" rx="2" fill="#1b2129"><title>2026-02-09: 0 submissions</title></rect><rect x="424" y="48" width="11" height="11" rx="2" fill="#1b2129"><title>2026-02-10: 0 submissions</title></rect><rect x="424" y="62" width="11" height="11" rx="2" fill="#1b2129"><title>2026-02-11: 0 submissions</title></rect><rect x="424" y="76" width="11" height="11" rx="2" fill="#1b2129"><title>2026-02-12: 0 submissions</title></rect><rect x="424" y="90" width="11" height="11" rx="2" fill="#1b2129"><title>2026-02-13: 0 submissions</title></rect><rect x="424" y="104" width="11" height="11" rx="2" fill="#1b2129"><title>2026-02-14: 0 submissions</title></rect><rect x="438" y="20" width="11" height="11" rx="2" fill="#1b2129"><title>2026-02-15: 0 submissions</title></rect><rect x="438" y="34" width="11" height="11" rx="2" fill="#1b2129"><title>2026-02-16: 0 submissions</title></rect><rect x="438" y="48" width="11" height="11" rx="2" fill="#1b2129"><title>2026-02-17: 0 submissions</title></rect><rect x="438" y="62" width="11" height="11" rx="2" fill="#1b2129"><title>2026-02-18: 0 submissions</title></rect><rect x="438" y="76" width="11" height="11" rx="2" fill="#1b2129"><title>2026-02-19: 0 submissions</title></rect><rect x="438" y="90" width="11" height="11" rx="2" fill="#1b2129"><title>2026-02-20: 0 submissions</title></rect><rect x="438" y="104" width="11" height="11" rx="2" fill="#1b2129"><title>2026-02-21: 0 submissions</title></rect><rect x="452" y="20" width="11" height="11" rx="2" fill="#1b2129"><title>2026-02-22: 0 submissions</title></rect><rect x="452" y="34" width="11" height="11" rx="2" fill="#1b2129"><title>2026-02-23: 0 submissions</title></rect><rect x="452" y="48" width="11" height="11" rx="2" fill="#1b2129"><title>2026-02-24: 0 submissions</title></rect><rect x="452" y="62" width="11" height="11" rx="2" fill="#1b2129"><title>2026-02-25: 0 submissions</title></rect><rect x="452" y="76" width="11" height="11" rx="2" fill="#1b2129"><title>2026-02-26: 0 submissions</title></rect><rect x="452" y="90" width="11" height="11" rx="2" fill="#1b2129"><title>2026-02-27: 0 submissions</title></rect><rect x="452" y="104" width="11" height="11" rx="2" fill="#1b2129"><title>2026-02-28: 0 submissions</title></rect><rect x="466" y="20" width="11" height="11" rx="2" fill="#1b2129"><title>2026-03-01: 0 submissions</title></rect><rect x="466" y="34" width="11" height="11" rx="2" fill="#1b2129"><title>2026-03-02: 0 submissions</title></rect><rect x="466" y="48" width="11" height="11" rx="2" fill="#1b2129"><title>2026-03-03: 0 submissions</title></rect><rect x="466" y="62" width="11" height="11" rx="2" fill="#1b2129"><title>2026-03-04: 0 submissions</title></rect><rect x="466" y="76" width="11" height="11" rx="2" fill="#1b2129"><title>2026-03-05: 0 submissions</title></rect><rect x="466" y="90" width="11" height="11" rx="2" fill="#1b2129"><title>2026-03-06: 0 submissions</title></rect><rect x="466" y="104" width="11" height="11" rx="2" fill="#1b2129"><title>2026-03-07: 0 submissions</title></rect><rect x="480" y="20" width="11" height="11" rx="2" fill="#1b2129"><title>2026-03-08: 0 submissions</title></rect><rect x="480" y="34" width="11" height="11" rx="2" fill="#1b2129"><title>2026-03-09: 0 submissions</title></rect><rect x="480" y="48" width="11" height="11" rx="2" fill="#1b2129"><title>2026-03-10: 0 submissions</title></rect><rect x="480" y="62" width="11" height="11" rx="2" fill="#1b2129"><title>2026-03-11: 0 submissions</title></rect><rect x="480" y="76" width="11" height="11" rx="2" fill="#1b2129"><title>2026-03-12: 0 submissions</title></rect><rect x="480" y="90" width="11" height="11" rx="2" fill="#1b2129"><title>2026-03-13: 0 submissions</title></rect><rect x="480" y="104" width="11" height="11" rx="2" fill="#1b2129"><title>2026-03-14: 0 submissions</title></rect><rect x="494" y="20" width="11" height="11" rx="2" fill="#1b2129"><title>2026-03-15: 0 submissions</title></rect><rect x="494" y="34" width="11" height="11" rx="2" fill="#1b2129"><title>2026-03-16: 0 submissions</title></rect><rect x="494" y="48" width="11" height="11" rx="2" fill="#1b2129"><title>2026-03-17: 0 submissions</title></rect><rect x="494" y="62" width="11" height="11" rx="2" fill="#1b2129"><title>2026-03-18: 0 submissions</title></rect><rect x="494" y="76" width="11" height="11" rx="2" fill="#1b2129"><title>2026-03-19: 0 submissions</title></rect><rect x="494" y="90" width="11" height="11" rx="2" fill="#1b2129"><title>2026-03-20: 0 submissions</title></rect><rect x="494" y="104" width="11" height="11" rx="2" fill="#1b2129"><title>2026-03-21: 0 submissions</title></rect><rect x="508" y="20" width="11" height="11" rx="2" fill="#1b2129"><title>2026-03-22: 0 submissions</title></rect><rect x="508" y="34" width="11" height="11" rx="2" fill="#1b2129"><title>2026-03-23: 0 submissions</title></rect><rect x="508" y="48" width="11" height="11" rx="2" fill="#1b2129"><title>2026-03-24: 0 submissions</title></rect><rect x="508" y="62" width="11" height="11" rx="2" fill="#1b2129"><title>2026-03-25: 0 submissions</title></rect><rect x="508" y="76" width="11" height="11" rx="2" fill="#1b2129"><title>2026-03-26: 0 submissions</title></rect><rect x="508" y="90" width="11" height="11" rx="2" fill="#1b2129"><title>2026-03-27: 0 submissions</title></rect><rect x="508" y="104" width="11" height="11" rx="2" fill="#1b2129"><title>2026-03-28: 0 submissions</title></rect><rect x="522" y="20" width="11" height="11" rx="2" fill="#1b2129"><title>2026-03-29: 0 submissions</title></rect><rect x="522" y="34" width="11" height="11" rx="2" fill="#1b2129"><title>2026-03-30: 0 submissions</title></rect><rect x="522" y="48" width="11" height="11" rx="2" fill="#1b2129"><title>2026-03-31: 0 submissions</title></rect><rect x="522" y="62" width="11" height="11" rx="2" fill="#1b2129"><title>2026-04-01: 0 submissions</title></rect><rect x="522" y="76" width="11" height="11" rx="2" fill="#1b2129"><title>2026-04-02: 0 submissions</title></rect><rect x="522" y="90" width="11" height="11" rx="2" fill="#1b2129"><title>2026-04-03: 0 submissions</title></rect><rect x="522" y="104" width="11" height="11" rx="2" fill="#1b2129"><title>2026-04-04: 0 submissions</title></rect><rect x="536" y="20" width="11" height="11" rx="2" fill="#1b2129"><title>2026-04-05: 0 submissions</title></rect><rect x="536" y="34" width="11" height="11" rx="2" fill="#1b2129"><title>2026-04-06: 0 submissions</title></rect><rect x="536" y="48" width="11" height="11" rx="2" fill="#1b2129"><title>2026-04-07: 0 submissions</title></rect><rect x="536" y="62" width="11" height="11" rx="2" fill="#1b2129"><title>2026-04-08: 0 submissions</title></rect><rect x="536" y="76" width="11" height="11" rx="2" fill="#1b2129"><title>2026-04-09: 0 submissions</title></rect><rect x="536" y="90" width="11" height="11" rx="2" fill="#1b2129"><title>2026-04-10: 0 submissions</title></rect><rect x="536" y="104" width="11" height="11" rx="2" fill="#1b2129"><title>2026-04-11: 0 submissions</title></rect><rect x="550" y="20" width="11" height="11" rx="2" fill="#1b2129"><title>2026-04-12: 0 submissions</title></rect><rect x="550" y="34" width="11" height="11" rx="2" fill="#1b2129"><title>2026-04-13: 0 submissions</title></rect><rect x="550" y="48" width="11" height="11" rx="2" fill="#1b2129"><title>2026-04-14: 0 submissions</title></rect><rect x="550" y="62" width="11" height="11" rx="2" fill="#1b2129"><title>2026-04-15: 0 submissions</title></rect><rect x="550" y="76" width="11" height="11" rx="2" fill="#1b2129"><title>2026-04-16: 0 submissions</title></rect><rect x="550" y="90" width="11" height="11" rx="2" fill="#1b2129"><title>2026-04-17: 0 submissions</title></rect><rect x="550" y="104" width="11" height="11" rx="2" fill="#1b2129"><title>2026-04-18: 0 submissions</title></rect><rect x="564" y="20" width="11" height="11" rx="2" fill="#1b2129"><title>2026-04-19: 0 submissions</title></rect><rect x="564" y="34" width="11" height="11" rx="2" fill="#1b2129"><title>2026-04-20: 0 submissions</title></rect><rect x="564" y="48" width="11" height="11" rx="2" fill="#1b2129"><title>2026-04-21: 0 submissions</title></rect><rect x="564" y="62" width="11" height="11" rx="2" fill="#1b2129"><title>2026-04-22: 0 submissions</title></rect><rect x="564" y="76" width="11" height="11" rx="2" fill="#1b2129"><title>2026-04-23: 0 submissions</title></rect><rect x="564" y="90" width="11" height="11" rx="2" fill="#1b2129"><title>2026-04-24: 0 submissions</title></rect><rect x="564" y="104" width="11" height="11" rx="2" fill="#1b2129"><title>2026-04-25: 0 submissions</title></rect><rect x="578" y="20" width="11" height="11" rx="2" fill="#1b2129"><title>2026-04-26: 0 submissions</title></rect><rect x="578" y="34" width="11" height="11" rx="2" fill="#1b2129"><title>2026-04-27: 0 submissions</title></rect><rect x="578" y="48" width="11" height="11" rx="2" fill="#1b2129"><title>2026-04-28: 0 submissions</title></rect><rect x="578" y="62" width="11" height="11" rx="2" fill="#1b2129"><title>2026-04-29: 0 submissions</title></rect><rect x="578" y="76" width="11" height="11" rx="2" fill="#1b2129"><title>2026-04-30: 0 submissions</title></rect><rect x="578" y="90" width="11" height="11" rx="2" fill="#1b2129"><title>2026-05-01: 0 submissions</title></rect><rect x="578" y="104" width="11" height="11" rx="2" fill="#1b2129"><title>2026-05-02: 0 submissions</title></rect><rect x="592" y="20" width="11" height="11" rx="2" fill="#1b2129"><title>2026-05-03: 0 submissions</title></rect><rect x="592" y="34" width="11" height="11" rx="2" fill="#1b2129"><title>2026-05-04: 0 submissions</title></rect><rect x="592" y="48" width="11" height="11" rx="2" fill="#1b2129"><title>2026-05-05: 0 submissions</title></rect><rect x="592" y="62" width="11" height="11" rx="2" fill="#1b2129"><title>2026-05-06: 0 submissions</title></rect><rect x="592" y="76" width="11" height="11" rx="2" fill="#1b2129"><title>2026-05-07: 0 submissions</title></rect><rect x="592" y="90" width="11" height="11" rx="2" fill="#1b2129"><title>2026-05-08: 0 submissions</title></rect><rect x="592" y="104" width="11" height="11" rx="2" fill="#1b2129"><title>2026-05-09: 0 submissions</title></rect><rect x="606" y="20" width="11" height="11" rx="2" fill="#1b2129"><title>2026-05-10: 0 submissions</title></rect><rect x="606" y="34" width="11" height="11" rx="2" fill="#1b2129"><title>2026-05-11: 0 submissions</title></rect><rect x="606" y="48" width="11" height="11" rx="2" fill="#1b2129"><title>2026-05-12: 0 submissions</title></rect><rect x="606" y="62" width="11" height="11" rx="2" fill="#1b2129"><title>2026-05-13: 0 submissions</title></rect><rect x="606" y="76" width="11" height="11" rx="2" fill="#1b2129"><title>2026-05-14: 0 submissions</title></rect><rect x="606" y="90" width="11" height="11" rx="2" fill="#1b2129"><title>2026-05-15: 0 submissions</title></rect><rect x="606" y="104" width="11" height="11" rx="2" fill="#1b2129"><title>2026-05-16: 0 submissions</title></rect><rect x="620" y="20" width="11" height="11" rx="2" fill="#1b2129"><title>2026-05-17: 0 submissions</title></rect><rect x="620" y="34" width="11" height="11" rx="2" fill="#1b2129"><title>2026-05-18: 0 submissions</title></rect><rect x="620" y="48" width="11" height="11" rx="2" fill="#1b2129"><title>2026-05-19: 0 submissions</title></rect><rect x="620" y="62" width="11" height="11" rx="2" fill="#1b2129"><title>2026-05-20: 0 submissions</title></rect><rect x="620" y="76" width="11" height="11" rx="2" fill="#1b2129"><title>2026-05-21: 0 submissions</title></rect><rect x="620" y="90" width="11" height="11" rx="2" fill="#1b2129"><title>2026-05-22: 0 submissions</title></rect><rect x="620" y="104" width="11" height="11" rx="2" fill="#1b2129"><title>2026-05-23: 0 submissions</title></rect><rect x="634" y="20" width="11" height="11" rx="2" fill="#1b2129"><title>2026-05-24: 0 submissions</title></rect><rect x="634" y="34" width="11" height="11" rx="2" fill="#1b2129"><title>2026-05-25: 0 submissions</title></rect><rect x="634" y="48" width="11" height="11" rx="2" fill="#1b2129"><title>2026-05-26: 0 submissions</title></rect><rect x="634" y="62" width="11" height="11" rx="2" fill="#1b2129"><title>2026-05-27: 0 submissions</title></rect><rect x="634" y="76" width="11" height="11" rx="2" fill="#1b2129"><title>2026-05-28: 0 submissions</title></rect><rect x="634" y="90" width="11" height="11" rx="2" fill="#1b2129"><title>2026-05-29: 0 submissions</title></rect><rect x="634" y="104" width="11" height="11" rx="2" fill="#1b2129"><title>2026-05-30: 0 submissions</title></rect><rect x="648" y="20" width="11" height="11" rx="2" fill="#1b2129"><title>2026-05-31: 0 submissions</title></rect><rect x="648" y="34" width="11" height="11" rx="2" fill="#1b2129"><title>2026-06-01: 0 submissions</title></rect><rect x="648" y="48" width="11" height="11" rx="2" fill="#1b2129"><title>2026-06-02: 0 submissions</title></rect><rect x="648" y="62" width="11" height="11" rx="2" fill="#1b2129"><title>2026-06-03: 0 submissions</title></rect><rect x="648" y="76" width="11" height="11" rx="2" fill="#1b2129"><title>2026-06-04: 0 submissions</title></rect><rect x="648" y="90" width="11" height="11" rx="2" fill="#1b2129"><title>2026-06-05: 0 submissions</title></rect><rect x="648" y="104" width="11" height="11" rx="2" fill="#1b2129"><title>2026-06-06: 0 submissions</title></rect><rect x="662" y="20" width="11" height="11" rx="2" fill="#1b2129"><title>2026-06-07: 0 submissions</title></rect><rect x="662" y="34" width="11" height="11" rx="2" fill="#1b2129"><title>2026-06-08: 0 submissions</title></rect><rect x="662" y="48" width="11" height="11" rx="2" fill="#1b2129"><title>2026-06-09: 0 submissions</title></rect><rect x="662" y="62" width="11" height="11" rx="2" fill="#1b2129"><title>2026-06-10: 0 submissions</title></rect><rect x="662" y="76" width="11" height="11" rx="2" fill="#1b2129"><title>2026-06-11: 0 submissions</title></rect><rect x="662" y="90" width="11" height="11" rx="2" fill="#1b2129"><title>2026-06-12: 0 submissions</title></rect><rect x="662" y="104" width="11" height="11" rx="2" fill="#1b2129"><title>2026-06-13: 0 submissions</title></rect><rect x="676" y="20" width="11" height="11" rx="2" fill="#1b2129"><title>2026-06-14: 0 submissions</title></rect><rect x="676" y="34" width="11" height="11" rx="2" fill="#1b2129"><title>2026-06-15: 0 submissions</title></rect><rect x="676" y="48" width="11" height="11" rx="2" fill="#1b2129"><title>2026-06-16: 0 submissions</title></rect><rect x="676" y="62" width="11" height="11" rx="2" fill="#1b2129"><title>2026-06-17: 0 submissions</title></rect><rect x="676" y="76" width="11" height="11" rx="2" fill="#1b2129"><title>2026-06-18: 0 submissions</title></rect><rect x="676" y="90" width="11" height="11" rx="2" fill="#1b2129"><title>2026-06-19: 0 submissions</title></rect><rect x="676" y="104" width="11" height="11" rx="2" fill="#1b2129"><title>2026-06-20: 0 submissions</title></rect><rect x="690" y="20" width="11" height="11" rx="2" fill="#1b2129"><title>2026-06-21: 0 submissions</title></rect><rect x="690" y="34" width="11" height="11" rx="2" fill="#1b2129"><title>2026-06-22: 0 submissions</title></rect><rect x="690" y="48" width="11" height="11" rx="2" fill="#1b2129"><title>2026-06-23: 0 submissions</title></rect><rect x="690" y="62" width="11" height="11" rx="2" fill="#1b2129"><title>2026-06-24: 0 submissions</title></rect><rect x="690" y="76" width="11" height="11" rx="2" fill="#1b2129"><title>2026-06-25: 0 submissions</title></rect><rect x="690" y="90" width="11" height="11" rx="2" fill="#1b2129"><title>2026-06-26: 0 submissions</title></rect><rect x="690" y="104" width="11" height="11" rx="2" fill="#1b2129"><title>2026-06-27: 0 submissions</title></rect><rect x="704" y="20" width="11" height="11" rx="2" fill="#1b2129"><title>2026-06-28: 0 submissions</title></rect><rect x="704" y="34" width="11" height="11" rx="2" fill="#1b2129"><title>2026-06-29: 0 submissions</title></rect><rect x="704" y="48" width="11" height="11" rx="2" fill="#1b2129"><title>2026-06-30: 0 submissions</title></rect><rect x="704" y="62" width="11" height="11" rx="2" fill="#1b2129"><title>2026-07-01: 0 submissions</title></rect><rect x="704" y="76" width="11" height="11" rx="2" fill="#4fd1c5"><title>2026-07-02: 3 submissions</title></rect><rect x="704" y="90" width="11" height="11" rx="2" fill="#4fd1c5"><title>2026-07-03: 4 submissions</title></rect><rect x="704" y="104" width="11" height="11" rx="2" fill="#12564f"><title>2026-07-04: 1 submission</title></rect><rect x="718" y="20" width="11" height="11" rx="2" fill="#4fd1c5"><title>2026-07-05: 3 submissions</title></rect><rect x="718" y="34" width="11" height="11" rx="2" fill="#1b2129"><title>2026-07-06: 0 submissions</title></rect><rect x="718" y="48" width="11" height="11" rx="2" fill="#1b2129"><title>2026-07-07: 0 submissions</title></rect><rect x="718" y="62" width="11" height="11" rx="2" fill="#1b2129"><title>2026-07-08: 0 submissions</title></rect><rect x="718" y="76" width="11" height="11" rx="2" fill="#1b2129"><title>2026-07-09: 0 submissions</title></rect><rect x="718" y="90" width="11" height="11" rx="2" fill="#1b2129"><title>2026-07-10: 0 submissions</title></rect><rect x="718" y="104" width="11" height="11" rx="2" fill="#1b2129"><title>2026-07-11: 0 submissions</title></rect><rect x="732" y="20" width="11" height="11" rx="2" fill="#1b2129"><title>2026-07-12: 0 submissions</title></rect><rect x="732" y="34" width="11" height="11" rx="2" fill="#1b2129"><title>2026-07-13: 0 submissions</title></rect><rect x="732" y="48" width="11" height="11" rx="2" fill="#1b2129"><title>2026-07-14: 0 submissions</title></rect><rect x="732" y="62" width="11" height="11" rx="2" fill="#1b2129"><title>2026-07-15: 0 submissions</title></rect><rect x="732" y="76" width="11" height="11" rx="2" fill="#1b2129"><title>2026-07-16: 0 submissions</title></rect><rect x="732" y="90" width="11" height="11" rx="2" fill="#1b2129"><title>2026-07-17: 0 submissions</title></rect><rect x="732" y="104" width="11" height="11" rx="2" fill="#1b2129"><title>2026-07-18: 0 submissions</title></rect><rect x="746" y="20" width="11" height="11" rx="2" fill="#1b2129"><title>2026-07-19: 0 submissions</title></rect>
</svg>